<?xml version="1.0" encoding="UTF-8" standalone="no"?><!DOCTYPE svg PUBLIC "-//W3C//DTD SVG 1.1//EN" "http://www.w3.org/Graphics/SVG/1.1/DTD/svg11.dtd"><svg width="100%" height="100%" viewBox="0 0 154 125" version="1.1" xmlns="http://www.w3.org/2000/svg" xmlns:xlink="http://www.w3.org/1999/xlink" xml:space="preserve" xmlns:serif="http://www.serif.com/" style="fill-rule:evenodd;clip-rule:evenodd;stroke-linecap:round;stroke-linejoin:round;stroke-miterlimit:1.5;"><g><g><path d="M149.142,18.196l-144.309,0l13.385,-13.363l117.539,0l13.385,13.363Z" style="fill:none;stroke:#fff;stroke-width:9.67px;"/><path d="M149.142,119.755l-144.309,0l13.385,-13.363l117.539,0l13.385,13.363Z" style="fill:none;stroke:#fff;stroke-width:9.67px;"/><path d="M19.041,106.392l0.223,-101.559" style="fill:none;stroke:#fff;stroke-width:9.67px;"/><path d="M129.248,106.392l0,-101.559" style="fill:none;stroke:#fff;stroke-width:9.67px;"/><path d="M149.142,119.755l0,-101.559" style="fill:none;stroke:#fff;stroke-width:9.67px;"/><path d="M4.833,119.755l0,-100.249" style="fill:none;stroke:#fff;stroke-width:9.67px;"/></g><g><rect x="4.907" y="17.058" width="145.115" height="101.581" style="fill:#33b1cc;stroke:#33b1cc;stroke-width:1.22px;"/><path d="M150.022,16.461l-145.189,0l13.467,-13.444l118.255,0l13.467,13.444Z" style="fill:#33b1cc;stroke:#fff;stroke-width:1.22px;"/><path d="M150.022,118.639l-145.189,0l13.467,-13.444l118.255,0l13.467,13.444Z" style="fill:#33b1cc;stroke:#fff;stroke-width:1.22px;"/><path d="M150.022,118.639l0,-102.178" style="fill:none;stroke:#fff;stroke-width:1.22px;"/><path d="M4.907,118.639l-0.074,-102.241" style="fill:none;stroke:#fff;stroke-width:1.22px;"/></g></g></svg>