<?xml version="1.0" encoding="UTF-8" standalone="no"?><!DOCTYPE svg PUBLIC "-//W3C//DTD SVG 1.1//EN" "http://www.w3.org/Graphics/SVG/1.1/DTD/svg11.dtd"><svg width="100%" height="100%" viewBox="0 0 28 23" version="1.1" xmlns="http://www.w3.org/2000/svg" xmlns:xlink="http://www.w3.org/1999/xlink" xml:space="preserve" xmlns:serif="http://www.serif.com/" style="fill-rule:evenodd;clip-rule:evenodd;stroke-linecap:round;stroke-linejoin:round;stroke-miterlimit:1.5;"><g><g><path d="M26.844,11.105c0.552,-0.588 0.461,-1.416 -0.205,-1.848l-13.229,-8.6c-0.665,-0.432 -1.654,-0.307 -2.207,0.281l-2.002,2.129c-0.553,0.587 -0.461,1.416 0.204,1.848l13.229,8.6c0.666,0.432 1.655,0.306 2.207,-0.281l2.003,-2.129Z" style="fill:#33b1cc;stroke:#f5f6ed;stroke-width:0.8px;"/><path d="M26.844,11.542c0.552,0.587 0.461,1.415 -0.205,1.848l-13.229,8.599c-0.665,0.433 -1.654,0.307 -2.207,-0.28l-2.002,-2.129c-0.553,-0.588 -0.461,-1.416 0.204,-1.849l13.229,-8.599c0.666,-0.433 1.655,-0.307 2.207,0.281l2.003,2.129Z" style="fill:#33b1cc;stroke:#f5f6ed;stroke-width:0.8px;"/><path d="M27.189,9.702c0,-0.937 -24.748,-1.697 -24.748,-1.697c-1.126,0 -2.041,0.76 -2.041,1.697l0,3.394c0,0.937 0.915,1.697 2.041,1.697c0,0 24.748,-0.76 24.748,-1.697l0,-3.394Z" style="fill:#33b1cc;stroke:#f5f6ed;stroke-width:0.8px;"/><path d="M26.844,11.542c0.552,0.587 0.461,1.415 -0.205,1.848l-13.229,8.599c-0.665,0.433 -1.654,0.307 -2.207,-0.28l-2.002,-2.129c-0.553,-0.588 -0.461,-1.416 0.204,-1.849l13.229,-8.599c0.666,-0.433 1.655,-0.307 2.207,0.281l2.003,2.129Z" style="fill:#33b1cc;"/><path d="M27.072,12.729c0.553,-0.588 0.199,-3.062 -0.507,-3.521l-13.08,-8.502c-0.707,-0.46 -1.729,-0.356 -2.282,0.232l-2.002,2.129c-0.553,0.587 -0.428,1.437 0.279,1.897l13.079,8.502c0.707,0.459 1.73,0.355 2.282,-0.232l2.231,-0.505Z" style="fill:#33b1cc;"/></g><text x="17.01px" y="12.686px" style="font-family:'FranklinGothic-Medium', 'Franklin Gothic Medium', sans-serif;font-size:5px;fill:#fff;">CBG</text></g></svg>