<?xml version="1.0" encoding="UTF-8" standalone="no"?><!DOCTYPE svg PUBLIC "-//W3C//DTD SVG 1.1//EN" "http://www.w3.org/Graphics/SVG/1.1/DTD/svg11.dtd"><svg width="100%" height="100%" viewBox="0 0 26 18" version="1.1" xmlns="http://www.w3.org/2000/svg" xmlns:xlink="http://www.w3.org/1999/xlink" xml:space="preserve" xmlns:serif="http://www.serif.com/" style="fill-rule:evenodd;clip-rule:evenodd;stroke-linecap:round;stroke-linejoin:round;stroke-miterlimit:1.5;"><g><g><g><path d="M12.538,0.62c-0.668,-0.353 -1.642,-0.266 -2.174,0.194l-9.627,8.307c-0.532,0.459 -0.422,1.118 0.246,1.471l2.419,1.276c0.668,0.353 1.642,0.266 2.174,-0.193l9.627,-8.308c0.532,-0.459 0.422,-1.118 -0.246,-1.47l-2.419,-1.277Z" style="fill:#33b1cc;stroke:#f5f6ed;stroke-width:0.8px;"/><path d="M13.034,0.62c0.668,-0.353 1.642,-0.266 2.174,0.194l9.627,8.307c0.532,0.459 0.422,1.118 -0.246,1.471l-2.419,1.276c-0.668,0.353 -1.642,0.266 -2.174,-0.193l-9.627,-8.308c-0.532,-0.459 -0.422,-1.118 0.246,-1.47l2.419,-1.277Z" style="fill:#33b1cc;stroke:#f5f6ed;stroke-width:0.8px;"/><path d="M10.943,0.4c-1.064,0 -1.928,15.778 -1.928,15.778c0,0.718 0.864,1.301 1.928,1.301l3.858,0c1.064,0 1.929,-0.583 1.929,-1.301c0,0 -0.865,-15.778 -1.929,-15.778l-3.858,0Z" style="fill:#33b1cc;stroke:#f5f6ed;stroke-width:0.8px;"/><path d="M13.034,0.62c0.668,-0.353 1.642,-0.266 2.174,0.194l9.627,8.307c0.532,0.459 0.422,1.118 -0.246,1.471l-2.419,1.276c-0.668,0.353 -1.642,0.266 -2.174,-0.193l-9.627,-8.308c-0.532,-0.459 -0.422,-1.118 0.246,-1.47l2.419,-1.277Z" style="fill:#33b1cc;"/><path d="M14.383,0.474c-0.667,-0.352 -3.479,-0.127 -4.001,0.324l-9.663,8.339c-0.522,0.45 -0.404,1.102 0.264,1.455l2.419,1.276c0.668,0.353 1.634,0.273 2.156,-0.178l9.663,-8.339c0.522,-0.45 0.404,-1.102 -0.264,-1.454l-0.574,-1.423Z" style="fill:#33b1cc;"/></g><text x="8.201px" y="6.197px" style="font-family:'FranklinGothic-Medium', 'Franklin Gothic Medium', sans-serif;font-size:5px;fill:#fff;">CBG</text></g></g></svg>