<?xml version="1.0" encoding="UTF-8" standalone="no"?><!DOCTYPE svg PUBLIC "-//W3C//DTD SVG 1.1//EN" "http://www.w3.org/Graphics/SVG/1.1/DTD/svg11.dtd"><svg width="100%" height="100%" viewBox="0 0 221 205" version="1.1" xmlns="http://www.w3.org/2000/svg" xmlns:xlink="http://www.w3.org/1999/xlink" xml:space="preserve" xmlns:serif="http://www.serif.com/" style="fill-rule:evenodd;clip-rule:evenodd;stroke-linecap:round;stroke-linejoin:round;stroke-miterlimit:1.5;"><g><path d="M215.284,199.931l-210.451,0l19.52,-37.581l171.411,0l19.52,37.581Z" style="fill:#bf9a40;stroke:#bf9a40;stroke-width:9.67px;"/><g><path d="M169.633,15.934l-119.879,0l11.119,-11.101l97.64,0l11.12,11.101Z" style="fill:none;stroke:#fff;stroke-width:9.67px;"/><path d="M169.633,100.3l-119.879,0l11.119,-11.101l97.64,0l11.12,11.101Z" style="fill:none;stroke:#fff;stroke-width:9.67px;"/><path d="M61.556,89.199l0.185,-84.366" style="fill:none;stroke:#fff;stroke-width:9.67px;"/><path d="M153.106,89.199l0,-84.366" style="fill:none;stroke:#fff;stroke-width:9.67px;"/><path d="M169.633,100.3l0,-84.366" style="fill:none;stroke:#fff;stroke-width:9.67px;"/><path d="M49.754,100.3l0,-83.278" style="fill:none;stroke:#fff;stroke-width:9.67px;"/></g><g><g><path d="M169.633,189.082l-119.879,0l11.119,0l97.64,0l11.12,0Z" style="fill:none;stroke:#fff;stroke-width:9.67px;"/><path d="M169.633,100.424l-118.804,0" style="fill:none;stroke:#fff;stroke-width:9.67px;"/><path d="M169.633,189.082l0,-88.658" style="fill:none;stroke:#fff;stroke-width:9.67px;"/><path d="M49.754,189.082l0,-88.658" style="fill:none;stroke:#fff;stroke-width:9.67px;"/></g><rect x="49.815" y="100.3" width="120.549" height="87.818" style="fill:#33b1cc;stroke:#33b1cc;stroke-width:1.22px;"/></g></g></svg>