<?xml version="1.0" encoding="UTF-8" standalone="no"?><!DOCTYPE svg PUBLIC "-//W3C//DTD SVG 1.1//EN" "http://www.w3.org/Graphics/SVG/1.1/DTD/svg11.dtd"><svg width="100%" height="100%" viewBox="0 0 347 205" version="1.1" xmlns="http://www.w3.org/2000/svg" xmlns:xlink="http://www.w3.org/1999/xlink" xml:space="preserve" xmlns:serif="http://www.serif.com/" style="fill-rule:evenodd;clip-rule:evenodd;stroke-linecap:round;stroke-linejoin:round;stroke-miterlimit:1.5;"><path d="M345.876,203.519c0.324,-4.707 0.486,-9.425 0.486,-14.145c0,-104.181 -77.463,-188.763 -172.875,-188.763c-95.413,0 -172.876,84.582 -172.876,188.763c0,4.72 0.162,9.438 0.486,14.145l344.779,0Z" style="fill:url(#_Linear1);stroke:#d0d0d0;stroke-width:1.22px;"/><path d="M173.487,1.777l0,199.703" style="fill:none;stroke:#d0d0d0;stroke-width:1.22px;"/><g><rect x="141.588" y="39.731" width="3.529" height="159.359" style="fill:#252525;"/><rect x="201.856" y="39.731" width="3.529" height="159.359" style="fill:#252525;"/><path d="M201.856,39.731c-18.548,-3.403 -37.462,-3.399 -56.739,0l0,159.359c19.303,3.195 38.214,3.178 56.739,0l0,-159.359Z" style="fill:#464646;"/><path d="M145.117,56.244c0,0.796 0.645,1.441 1.441,1.441l53.803,0c0.397,0 0.777,-0.157 1.057,-0.438c0.281,-0.28 0.438,-0.661 0.438,-1.057c0,-1.465 0,-3.683 0,-5.135c0,-0.806 -0.653,-1.459 -1.459,-1.459c-7.945,0 -45.938,0 -53.839,0c-0.796,0 -1.441,0.645 -1.441,1.441l0,5.207Z" style="fill:url(#_Linear2);"/><path d="M145.117,110.9c0,0.796 0.645,1.441 1.441,1.441l53.803,0c0.397,0 0.777,-0.157 1.057,-0.438c0.281,-0.28 0.438,-0.661 0.438,-1.057c0,-1.465 0,-3.683 0,-5.135c0,-0.806 -0.653,-1.459 -1.459,-1.459c-7.945,0 -45.938,0 -53.839,0c-0.796,0 -1.441,0.645 -1.441,1.441l0,5.207Z" style="fill:url(#_Linear3);"/><path d="M145.117,165.556c0,0.796 0.645,1.441 1.441,1.441l53.803,0c0.397,0 0.777,-0.157 1.057,-0.438c0.281,-0.28 0.438,-0.66 0.438,-1.057c0,-1.465 0,-3.683 0,-5.135c0,-0.806 -0.653,-1.459 -1.459,-1.459c-7.945,0 -45.938,0 -53.839,0c-0.796,0 -1.441,0.645 -1.441,1.441l0,5.207Z" style="fill:url(#_Linear4);"/><path d="M145.117,83.572c0,0.796 0.645,1.441 1.441,1.441l53.803,0c0.397,0 0.777,-0.157 1.057,-0.438c0.281,-0.28 0.438,-0.661 0.438,-1.057c0,-1.465 0,-3.683 0,-5.135c0,-0.806 -0.653,-1.459 -1.459,-1.459c-7.945,0 -45.938,0 -53.839,0c-0.796,0 -1.441,0.645 -1.441,1.441l0,5.207Z" style="fill:url(#_Linear5);"/><path d="M145.117,138.228c0,0.796 0.645,1.441 1.441,1.441l53.803,0c0.397,0 0.777,-0.157 1.057,-0.438c0.281,-0.28 0.438,-0.661 0.438,-1.057c0,-1.465 0,-3.683 0,-5.135c0,-0.806 -0.653,-1.459 -1.459,-1.459c-7.945,0 -45.938,0 -53.839,0c-0.796,0 -1.441,0.645 -1.441,1.441l0,5.207Z" style="fill:url(#_Linear6);"/><path d="M145.117,192.884c0,0.796 0.645,1.441 1.441,1.441l53.803,0c0.397,0 0.777,-0.157 1.057,-0.438c0.281,-0.28 0.438,-0.66 0.438,-1.057c0,-1.465 0,-3.683 0,-5.135c0,-0.806 -0.653,-1.459 -1.459,-1.459c-7.945,0 -45.938,0 -53.839,0c-0.796,0 -1.441,0.645 -1.441,1.441l0,5.207Z" style="fill:url(#_Linear7);"/><path d="M145.117,69.908c0,0.796 0.645,1.441 1.441,1.441l53.803,0c0.397,0 0.777,-0.157 1.057,-0.438c0.281,-0.28 0.438,-0.661 0.438,-1.057c0,-1.465 0,-3.683 0,-5.135c0,-0.806 -0.653,-1.459 -1.459,-1.459c-7.945,0 -45.938,0 -53.839,0c-0.796,0 -1.441,0.645 -1.441,1.441l0,5.207Z" style="fill:url(#_Linear8);"/><path d="M145.117,124.564c0,0.796 0.645,1.441 1.441,1.441l53.803,0c0.397,0 0.777,-0.157 1.057,-0.438c0.281,-0.28 0.438,-0.661 0.438,-1.057c0,-1.465 0,-3.683 0,-5.135c0,-0.806 -0.653,-1.459 -1.459,-1.459c-7.945,0 -45.938,0 -53.839,0c-0.796,0 -1.441,0.645 -1.441,1.441l0,5.207Z" style="fill:url(#_Linear9);"/><path d="M145.117,179.22c0,0.796 0.645,1.441 1.441,1.441l53.803,0c0.397,0 0.777,-0.157 1.057,-0.438c0.281,-0.28 0.438,-0.66 0.438,-1.057c0,-1.465 0,-3.683 0,-5.135c0,-0.806 -0.653,-1.459 -1.459,-1.459c-7.945,0 -45.938,0 -53.839,0c-0.796,0 -1.441,0.645 -1.441,1.441l0,5.207Z" style="fill:url(#_Linear10);"/><path d="M145.117,97.236c0,0.796 0.645,1.441 1.441,1.441l53.803,0c0.397,0 0.777,-0.157 1.057,-0.438c0.281,-0.28 0.438,-0.661 0.438,-1.057c0,-1.465 0,-3.683 0,-5.135c0,-0.806 -0.653,-1.459 -1.459,-1.459c-7.945,0 -45.938,0 -53.839,0c-0.796,0 -1.441,0.645 -1.441,1.441l0,5.207Z" style="fill:url(#_Linear11);"/><path d="M145.117,151.892c0,0.796 0.645,1.441 1.441,1.441l53.803,0c0.397,0 0.777,-0.157 1.057,-0.438c0.281,-0.28 0.438,-0.66 0.438,-1.057c0,-1.465 0,-3.683 0,-5.135c0,-0.806 -0.653,-1.459 -1.459,-1.459c-7.945,0 -45.938,0 -53.839,0c-0.796,0 -1.441,0.645 -1.441,1.441l0,5.207Z" style="fill:url(#_Linear12);"/></g><defs><linearGradient id="_Linear1" x1="0" y1="0" x2="1" y2="0" gradientUnits="userSpaceOnUse" gradientTransform="matrix(3.01829e-15,377.526,-49.2924,2.31168e-14,182.697,0.611111)"><stop offset="0" style="stop-color:#f5f6ed;stop-opacity:1"/><stop offset="0.63" style="stop-color:#edeed9;stop-opacity:1"/><stop offset="0.83" style="stop-color:#d8dba7;stop-opacity:1"/><stop offset="1" style="stop-color:#c1c670;stop-opacity:1"/></linearGradient><linearGradient id="_Linear2" x1="0" y1="0" x2="1" y2="0" gradientUnits="userSpaceOnUse" gradientTransform="matrix(-1.48594e-15,-8.0891,8.0891,-1.48594e-15,171.975,57.685)"><stop offset="0" style="stop-color:#585858;stop-opacity:1"/><stop offset="0.1" style="stop-color:#555;stop-opacity:1"/><stop offset="0.14" style="stop-color:#4d4d4d;stop-opacity:1"/><stop offset="0.18" style="stop-color:#464646;stop-opacity:1"/><stop offset="0.68" style="stop-color:#3f3f3f;stop-opacity:1"/><stop offset="0.85" style="stop-color:#303030;stop-opacity:1"/><stop offset="1" style="stop-color:#1f1f1f;stop-opacity:1"/></linearGradient><linearGradient id="_Linear3" x1="0" y1="0" x2="1" y2="0" gradientUnits="userSpaceOnUse" gradientTransform="matrix(-1.48594e-15,-8.0891,8.0891,-1.48594e-15,171.975,112.341)"><stop offset="0" style="stop-color:#585858;stop-opacity:1"/><stop offset="0.1" style="stop-color:#555;stop-opacity:1"/><stop offset="0.14" style="stop-color:#4d4d4d;stop-opacity:1"/><stop offset="0.18" style="stop-color:#464646;stop-opacity:1"/><stop offset="0.68" style="stop-color:#3f3f3f;stop-opacity:1"/><stop offset="0.85" style="stop-color:#303030;stop-opacity:1"/><stop offset="1" style="stop-color:#1f1f1f;stop-opacity:1"/></linearGradient><linearGradient id="_Linear4" x1="0" y1="0" x2="1" y2="0" gradientUnits="userSpaceOnUse" gradientTransform="matrix(-1.48594e-15,-8.0891,8.0891,-1.48594e-15,171.975,166.997)"><stop offset="0" style="stop-color:#585858;stop-opacity:1"/><stop offset="0.1" style="stop-color:#555;stop-opacity:1"/><stop offset="0.14" style="stop-color:#4d4d4d;stop-opacity:1"/><stop offset="0.18" style="stop-color:#464646;stop-opacity:1"/><stop offset="0.68" style="stop-color:#3f3f3f;stop-opacity:1"/><stop offset="0.85" style="stop-color:#303030;stop-opacity:1"/><stop offset="1" style="stop-color:#1f1f1f;stop-opacity:1"/></linearGradient><linearGradient id="_Linear5" x1="0" y1="0" x2="1" y2="0" gradientUnits="userSpaceOnUse" gradientTransform="matrix(-1.48594e-15,-8.0891,8.0891,-1.48594e-15,171.975,85.0131)"><stop offset="0" style="stop-color:#585858;stop-opacity:1"/><stop offset="0.1" style="stop-color:#555;stop-opacity:1"/><stop offset="0.14" style="stop-color:#4d4d4d;stop-opacity:1"/><stop offset="0.18" style="stop-color:#464646;stop-opacity:1"/><stop offset="0.68" style="stop-color:#3f3f3f;stop-opacity:1"/><stop offset="0.85" style="stop-color:#303030;stop-opacity:1"/><stop offset="1" style="stop-color:#1f1f1f;stop-opacity:1"/></linearGradient><linearGradient id="_Linear6" x1="0" y1="0" x2="1" y2="0" gradientUnits="userSpaceOnUse" gradientTransform="matrix(-1.48594e-15,-8.0891,8.0891,-1.48594e-15,171.975,139.669)"><stop offset="0" style="stop-color:#585858;stop-opacity:1"/><stop offset="0.1" style="stop-color:#555;stop-opacity:1"/><stop offset="0.14" style="stop-color:#4d4d4d;stop-opacity:1"/><stop offset="0.18" style="stop-color:#464646;stop-opacity:1"/><stop offset="0.68" style="stop-color:#3f3f3f;stop-opacity:1"/><stop offset="0.85" style="stop-color:#303030;stop-opacity:1"/><stop offset="1" style="stop-color:#1f1f1f;stop-opacity:1"/></linearGradient><linearGradient id="_Linear7" x1="0" y1="0" x2="1" y2="0" gradientUnits="userSpaceOnUse" gradientTransform="matrix(-1.48594e-15,-8.0891,8.0891,-1.48594e-15,171.975,194.325)"><stop offset="0" style="stop-color:#585858;stop-opacity:1"/><stop offset="0.1" style="stop-color:#555;stop-opacity:1"/><stop offset="0.14" style="stop-color:#4d4d4d;stop-opacity:1"/><stop offset="0.18" style="stop-color:#464646;stop-opacity:1"/><stop offset="0.68" style="stop-color:#3f3f3f;stop-opacity:1"/><stop offset="0.85" style="stop-color:#303030;stop-opacity:1"/><stop offset="1" style="stop-color:#1f1f1f;stop-opacity:1"/></linearGradient><linearGradient id="_Linear8" x1="0" y1="0" x2="1" y2="0" gradientUnits="userSpaceOnUse" gradientTransform="matrix(-1.48594e-15,-8.0891,8.0891,-1.48594e-15,171.975,71.3491)"><stop offset="0" style="stop-color:#585858;stop-opacity:1"/><stop offset="0.1" style="stop-color:#555;stop-opacity:1"/><stop offset="0.14" style="stop-color:#4d4d4d;stop-opacity:1"/><stop offset="0.18" style="stop-color:#464646;stop-opacity:1"/><stop offset="0.68" style="stop-color:#3f3f3f;stop-opacity:1"/><stop offset="0.85" style="stop-color:#303030;stop-opacity:1"/><stop offset="1" style="stop-color:#1f1f1f;stop-opacity:1"/></linearGradient><linearGradient id="_Linear9" x1="0" y1="0" x2="1" y2="0" gradientUnits="userSpaceOnUse" gradientTransform="matrix(-1.48594e-15,-8.0891,8.0891,-1.48594e-15,171.975,126.005)"><stop offset="0" style="stop-color:#585858;stop-opacity:1"/><stop offset="0.1" style="stop-color:#555;stop-opacity:1"/><stop offset="0.14" style="stop-color:#4d4d4d;stop-opacity:1"/><stop offset="0.18" style="stop-color:#464646;stop-opacity:1"/><stop offset="0.68" style="stop-color:#3f3f3f;stop-opacity:1"/><stop offset="0.85" style="stop-color:#303030;stop-opacity:1"/><stop offset="1" style="stop-color:#1f1f1f;stop-opacity:1"/></linearGradient><linearGradient id="_Linear10" x1="0" y1="0" x2="1" y2="0" gradientUnits="userSpaceOnUse" gradientTransform="matrix(-1.48594e-15,-8.0891,8.0891,-1.48594e-15,171.975,180.661)"><stop offset="0" style="stop-color:#585858;stop-opacity:1"/><stop offset="0.1" style="stop-color:#555;stop-opacity:1"/><stop offset="0.14" style="stop-color:#4d4d4d;stop-opacity:1"/><stop offset="0.18" style="stop-color:#464646;stop-opacity:1"/><stop offset="0.68" style="stop-color:#3f3f3f;stop-opacity:1"/><stop offset="0.85" style="stop-color:#303030;stop-opacity:1"/><stop offset="1" style="stop-color:#1f1f1f;stop-opacity:1"/></linearGradient><linearGradient id="_Linear11" x1="0" y1="0" x2="1" y2="0" gradientUnits="userSpaceOnUse" gradientTransform="matrix(-1.48594e-15,-8.0891,8.0891,-1.48594e-15,171.975,98.6771)"><stop offset="0" style="stop-color:#585858;stop-opacity:1"/><stop offset="0.1" style="stop-color:#555;stop-opacity:1"/><stop offset="0.14" style="stop-color:#4d4d4d;stop-opacity:1"/><stop offset="0.18" style="stop-color:#464646;stop-opacity:1"/><stop offset="0.68" style="stop-color:#3f3f3f;stop-opacity:1"/><stop offset="0.85" style="stop-color:#303030;stop-opacity:1"/><stop offset="1" style="stop-color:#1f1f1f;stop-opacity:1"/></linearGradient><linearGradient id="_Linear12" x1="0" y1="0" x2="1" y2="0" gradientUnits="userSpaceOnUse" gradientTransform="matrix(-1.48594e-15,-8.0891,8.0891,-1.48594e-15,171.975,153.333)"><stop offset="0" style="stop-color:#585858;stop-opacity:1"/><stop offset="0.1" style="stop-color:#555;stop-opacity:1"/><stop offset="0.14" style="stop-color:#4d4d4d;stop-opacity:1"/><stop offset="0.18" style="stop-color:#464646;stop-opacity:1"/><stop offset="0.68" style="stop-color:#3f3f3f;stop-opacity:1"/><stop offset="0.85" style="stop-color:#303030;stop-opacity:1"/><stop offset="1" style="stop-color:#1f1f1f;stop-opacity:1"/></linearGradient></defs></svg>